<?xml version="1.0" standalone="no"?><!DOCTYPE svg PUBLIC "-//W3C//DTD SVG 1.1//EN" "http://www.w3.org/Graphics/SVG/1.1/DTD/svg11.dtd"><svg t="1597301959110" class="icon" viewBox="0 0 1024 1024" version="1.1" xmlns="http://www.w3.org/2000/svg" p-id="19614" xmlns:xlink="http://www.w3.org/1999/xlink" width="48" height="48"><defs><style type="text/css"></style></defs><path d="M509.2 65.3c-87.2 0-157.9 70.2-157.9 156.8v275.6c0 86.6 70.7 156.8 157.9 156.8s157.9-70.2 157.9-156.8V222c-0.1-86.5-70.8-156.7-157.9-156.7zM239.5 458.4c-18.2 0-32.9 14.6-32.9 32.7 0 2.3 0.2 4.5 0.7 6.5h-0.7c0 152.6 114.7 278.4 263.1 297.7v81.2h-52.6c-21.8 0-39.5 17.6-39.5 39.2s17.7 39.2 39.5 39.2h184.2c21.8 0 39.5-17.6 39.5-39.2s-17.7-39.2-39.5-39.2h-52.6v-81.2c144.1-18.7 256.1-137.9 262.4-284.5 0.4-2.1 0.7-4.3 0.7-6.6 0-0.8-0.2-1.5-0.2-2.2 0-1.5 0.2-2.9 0.2-4.4h-0.7c-3.1-14.9-16.3-26.1-32.3-26.1-15.9 0-29.2 11.2-32.3 26.1h-0.7c0 129.9-106 235.1-236.8 235.1S272.2 627.5 272.2 497.6h-0.7c0.4-2.1 0.7-4.3 0.7-6.5 0.2-18.1-14.5-32.7-32.7-32.7z" p-id="19615"></path></svg>