<?xml version="1.0" standalone="no"?><!DOCTYPE svg PUBLIC "-//W3C//DTD SVG 1.1//EN" "http://www.w3.org/Graphics/SVG/1.1/DTD/svg11.dtd"><svg t="1597301707891" class="icon" viewBox="0 0 1024 1024" version="1.1" xmlns="http://www.w3.org/2000/svg" p-id="18527" xmlns:xlink="http://www.w3.org/1999/xlink" width="48" height="48"><defs><style type="text/css"></style></defs><path d="M928.4608 113.5104c14.7968 14.6432 14.9504 38.5024 0.3072 53.3248l-0.3072 0.3328L150.0672 936.0896a38.656 38.656 0 0 1-54.2976 0 37.7088 37.7088 0 0 1-0.3328-53.3248l0.3328-0.3328L874.1376 113.5104a38.656 38.656 0 0 1 54.3232 0zM793.6 353.9968v70.6048l136.6272-57.1904A30.72 30.72 0 0 1 972.8 395.776V688.64a30.72 30.72 0 0 1-42.5728 28.3392L793.6 659.7632v40.8064a102.4 102.4 0 0 1-102.4 102.4H323.8656L793.6 353.9968z m-102.4-107.3664c2.8928 0 5.76 0.1024 8.576 0.3328L122.9568 798.3104A102.4512 102.4512 0 0 1 51.2 700.5696V349.0304a102.4 102.4 0 0 1 102.4-102.4h537.6z" fill="#1296db" p-id="18528" data-spm-anchor-id="a313x.7781069.0.i14" class=""></path></svg>