<?xml version="1.0" standalone="no"?><!DOCTYPE svg PUBLIC "-//W3C//DTD SVG 1.1//EN" "http://www.w3.org/Graphics/SVG/1.1/DTD/svg11.dtd"><svg t="1597299840150" class="icon" viewBox="0 0 1024 1024" version="1.1" xmlns="http://www.w3.org/2000/svg" p-id="3348" width="48" height="48" xmlns:xlink="http://www.w3.org/1999/xlink"><defs><style type="text/css"></style></defs><path d="M853.33 597.33H170.67v-384h682.67v384z m-682.66 85.34V640h682.67v42.67H170.67z m426.66 128H426.67v-85.33h170.67v85.33z m275.82-640h-722.3c-12.62 0-22.85 10.72-22.85 23.95v512.64c0 13.23 10.23 23.95 22.85 23.95H384v74.23h-65.54c-12.62 0-22.85 10.72-22.85 23.95 0 13.23 10.23 23.95 22.85 23.95h387.08c12.62 0 22.85-10.72 22.85-23.95 0-13.23-10.23-23.95-22.85-23.95H640V731.2h233.15c12.62 0 22.85-10.72 22.85-23.95V194.61c0-13.22-10.23-23.94-22.85-23.94z" p-id="3349" fill="#cdcdcd"></path></svg>