<?xml version="1.0" standalone="no"?><!DOCTYPE svg PUBLIC "-//W3C//DTD SVG 1.1//EN" "http://www.w3.org/Graphics/SVG/1.1/DTD/svg11.dtd"><svg t="1597300980536" class="icon" viewBox="0 0 1024 1024" version="1.1" xmlns="http://www.w3.org/2000/svg" p-id="4812" xmlns:xlink="http://www.w3.org/1999/xlink" width="48" height="48"><defs><style type="text/css"></style></defs><path d="M128 729.728h763.712v-409.6H128z" fill="#00C0AE" p-id="4813"></path><path d="M546.112 417.664c-119.488 17.088-170.688 102.4-187.712 187.712 42.688-59.712 102.4-87.04 187.712-87.04v69.952l119.488-119.488-119.488-119.488v68.352z" fill="#282F44" p-id="4814"></path><path d="M891.84 170.688c35.264 0 63.936 29.184 63.872 65.024v497.344c0 35.84-28.672 65.024-63.936 65.024h-345.344v100.8h156.864a33.728 33.728 0 0 1 0 67.456h-382.592a33.728 33.728 0 0 1 0-67.456h156.864v-100.8h-345.344c-35.264 0-63.936-29.184-63.936-65.024v-497.344c0-35.84 28.672-65.024 63.936-65.024h759.616z m-759.616 559.04h759.488v-496h-759.488v496z" fill="#282F44" p-id="4815"></path></svg>