<?xml version="1.0" standalone="no"?><!DOCTYPE svg PUBLIC "-//W3C//DTD SVG 1.1//EN" "http://www.w3.org/Graphics/SVG/1.1/DTD/svg11.dtd"><svg t="1597306406054" class="icon" viewBox="0 0 1117 1024" version="1.1" xmlns="http://www.w3.org/2000/svg" p-id="23964" xmlns:xlink="http://www.w3.org/1999/xlink" width="52.359375" height="48"><defs><style type="text/css"></style></defs><path d="M80.709818 707.118545c0 36.305455 30.347636 65.722182 67.863273 65.722182h819.944727a66.932364 66.932364 0 0 0 67.956364-65.629091V149.969455a66.746182 66.746182 0 0 0-67.956364-65.629091H148.573091a66.932364 66.932364 0 0 0-67.956364 65.629091v557.14909zM148.573091 18.059636h819.944727c75.217455 0 136.192 59.019636 136.192 131.909819v557.14909c0 72.890182-61.160727 132.002909-136.192 132.00291H148.573091C73.448727 839.121455 12.474182 780.101818 12.381091 707.211636V149.969455C12.381091 77.172364 73.541818 18.059636 148.573091 18.059636zM613.841455 536.203636v-74.193454c-23.179636-3.258182-89.553455-9.495273-148.38691 13.498182-72.704 28.392727-110.592 67.304727-110.592 67.304727s-13.684364-46.545455 53.434182-122.507636c57.437091-64.884364 173.242182-61.346909 205.451637-58.926546v-66.373818c0-12.753455 8.192-15.825455 18.432-6.516364l123.531636 110.592c4.840727 4.282182 7.633455 10.24 7.633455 16.570182 0 6.237091-2.792727 12.288-7.633455 16.477091L632.087273 542.906182c-10.146909 9.029818-18.338909 6.144-18.338909-6.702546z m-292.77091 475.694546a34.443636 34.443636 0 0 1-35.560727-33.047273c0-18.338909 15.918545-33.140364 35.560727-33.140364h474.949819c19.549091 0 35.560727 14.894545 35.560727 33.140364 0 18.245818-15.918545 33.140364-35.560727 33.140364H321.070545z" fill="#dbdbdb" p-id="23965"></path></svg>